<?xml version="1.0" standalone="no"?>
<!DOCTYPE svg PUBLIC "-//W3C//DTD SVG 20010904//EN"
 "http://www.w3.org/TR/2001/REC-SVG-20010904/DTD/svg10.dtd">
<svg version="1.0" xmlns="http://www.w3.org/2000/svg"
 width="300.000000pt" height="300.000000pt" viewBox="0 0 300.000000 300.000000"
 preserveAspectRatio="xMidYMid meet">
<metadata>
Created by potrace 1.10, written by Peter Selinger 2001-2011
</metadata>
<g transform="translate(0.000000,300.000000) scale(0.100000,-0.100000)"
fill="#000000" stroke="none">
<path d="M1342 2604 c-352 -59 -652 -286 -802 -607 -169 -360 -92 -816 186
-1104 63 -65 62 -54 -1 22 -82 98 -133 184 -183 306 -16 41 -52 175 -58 216
-7 52 -7 223 0 253 3 13 8 42 11 65 16 107 92 315 117 315 4 0 8 4 8 10 0 20
91 138 157 202 70 70 156 138 173 138 6 0 10 3 10 8 0 4 37 24 83 46 117 55
140 65 162 68 11 2 22 6 25 9 3 4 52 15 109 24 113 19 289 16 366 -5 22 -7 58
-17 80 -23 72 -19 255 -105 255 -119 0 -4 5 -8 11 -8 44 0 304 -252 282 -274
-4 -3 0 -6 8 -6 8 0 19 -8 24 -19 6 -10 28 -51 50 -92 21 -41 39 -76 40 -79 0
-3 8 -25 17 -50 28 -78 50 -204 53 -308 1 -75 -24 -250 -47 -317 -23 -69 -78
-185 -95 -203 -7 -7 -13 -20 -13 -28 0 -8 -4 -14 -10 -14 -5 0 -10 -6 -10 -12
0 -7 -32 -51 -70 -97 -39 -46 -70 -87 -70 -90 1 -13 121 121 161 180 57 85
123 228 149 324 31 114 38 311 16 428 -82 435 -439 775 -883 842 -118 18 -200
18 -311 -1z"/>
<path d="M1473 2494 c-3 -8 2 -23 11 -32 15 -15 17 -15 32 0 21 21 11 48 -16
48 -11 0 -23 -7 -27 -16z m43 -5 c10 -17 -13 -36 -27 -22 -12 12 -4 33 11 33
5 0 12 -5 16 -11z"/>
<path d="M1769 2439 c-11 -11 -18 -27 -15 -36 3 -8 6 -18 6 -22 0 -4 12 -13
26 -20 22 -10 30 -9 45 5 26 23 24 59 -3 78 -29 21 -34 20 -59 -5z m59 -33
c-4 -25 -43 -34 -51 -12 -4 9 1 22 9 30 20 20 46 9 42 -18z"/>
<path d="M1125 2406 c-31 -31 -31 -40 1 -65 21 -16 30 -18 49 -9 43 19 40 64
-7 89 -14 8 -24 4 -43 -15z m58 -18 c7 -21 -4 -38 -23 -38 -23 0 -34 16 -26
35 7 18 43 20 49 3z"/>
<path d="M1406 2329 c-279 -66 -567 -461 -653 -896 -23 -119 -23 -334 1 -423
82 -310 362 -533 700 -557 153 -10 327 33 462 116 340 210 436 598 268 1082
-159 458 -489 746 -778 678z m262 -96 c261 -129 492 -529 532 -922 24 -243
-39 -440 -190 -591 -280 -278 -738 -278 -1019 0 -152 151 -213 341 -190 591
31 331 188 654 412 845 150 129 299 154 455 77z"/>
<path d="M1749 2130 c37 -57 58 -107 82 -195 13 -45 18 -56 15 -30 -11 86 -48
183 -88 227 l-38 43 29 -45z"/>
<path d="M961 2301 c-16 -28 14 -51 36 -28 13 13 14 19 3 31 -17 21 -27 20
-39 -3z"/>
<path d="M2002 2268 c-23 -23 -42 -45 -42 -48 0 -9 82 -100 90 -100 13 0 90
81 90 94 0 18 -69 96 -85 96 -6 0 -31 -19 -53 -42z m106 -39 l27 -11 -32 -13
c-23 -10 -33 -22 -39 -47 l-7 -33 -14 33 c-7 18 -24 38 -38 44 -32 15 -31 21
5 35 19 7 30 18 30 30 0 34 14 36 28 3 7 -17 24 -35 40 -41z"/>
<path d="M788 2118 c-21 -22 -38 -44 -38 -47 0 -13 79 -91 92 -91 7 1 30 18
52 39 29 30 37 44 31 60 -3 11 -11 21 -16 21 -5 0 -9 7 -9 15 0 8 -6 15 -14
15 -8 0 -16 7 -20 15 -10 26 -40 16 -78 -27z m72 -1 c9 -20 24 -33 38 -35 30
-5 28 -18 -4 -26 -16 -4 -30 -18 -37 -36 -12 -33 -27 -40 -27 -13 0 20 -28 53
-47 53 -22 0 -15 14 17 32 18 10 30 25 30 38 0 29 13 24 30 -13z"/>
<path d="M2162 2138 c-27 -27 -6 -68 35 -68 29 0 48 33 33 60 -12 22 -49 27
-68 8z m55 -24 c8 -22 -18 -37 -36 -20 -7 8 -10 19 -7 25 10 16 36 13 43 -5z"/>
<path d="M2197 1991 c-20 -22 -37 -45 -37 -51 0 -14 55 -80 78 -94 22 -13 105
79 93 102 -15 27 -72 82 -85 82 -7 0 -29 -18 -49 -39z m67 -6 c10 -24 22 -35
35 -35 29 0 26 -12 -9 -32 -18 -10 -30 -25 -30 -37 0 -30 -17 -34 -24 -6 -4
14 -21 34 -38 45 l-32 19 28 11 c16 6 32 23 39 40 6 17 13 30 14 30 2 0 9 -16
17 -35z"/>
<path d="M693 1995 c-40 -28 -19 -85 26 -70 38 12 44 31 19 59 -22 25 -24 26
-45 11z m35 -33 c2 -14 -2 -22 -12 -22 -19 0 -29 17 -22 36 8 22 30 12 34 -14z"/>
<path d="M633 1813 l-41 -47 44 -50 c42 -48 43 -51 28 -74 -12 -18 -13 -26 -3
-38 15 -18 33 -18 49 1 10 12 10 18 0 30 -16 19 -5 62 20 75 51 28 44 88 -15
129 -17 11 -34 21 -36 21 -3 0 -24 -21 -46 -47z m104 -37 l28 -14 -27 -11
c-17 -6 -33 -24 -41 -43 l-13 -33 -12 33 c-6 18 -22 37 -36 44 l-26 11 29 18
c15 9 32 30 36 46 l8 28 13 -32 c8 -18 26 -39 41 -47z"/>
<path d="M2235 1800 c-22 -25 -13 -52 17 -48 27 4 36 39 15 56 -11 9 -18 8
-32 -8z m31 -11 c10 -17 -13 -36 -27 -22 -12 12 -4 33 11 33 5 0 12 -5 16 -11z"/>
<path d="M2318 1602 c-16 -27 -16 -29 3 -45 27 -24 53 -21 68 7 30 56 -39 93
-71 38z m57 -17 c0 -30 -39 -27 -43 3 -3 20 0 23 20 20 15 -2 23 -10 23 -23z"/>
<path d="M631 1496 c-15 -17 1 -56 23 -56 23 0 41 30 29 48 -14 23 -37 26 -52
8z m44 -17 c0 -7 -8 -15 -17 -17 -18 -3 -25 18 -11 32 10 10 28 1 28 -15z"/>
<path d="M2322 1457 c-9 -10 -9 -18 1 -31 17 -23 49 -11 45 18 -4 25 -30 32
-46 13z"/>
<path d="M2336 1315 c-9 -9 -16 -20 -16 -25 0 -15 32 -41 48 -38 24 5 39 35
26 56 -15 23 -38 26 -58 7z m49 -25 c0 -8 -10 -16 -22 -18 -18 -3 -23 2 -23
18 0 16 5 21 23 18 12 -2 22 -10 22 -18z"/>
<path d="M610 1306 c-6 -8 -10 -25 -8 -38 2 -18 10 -24 35 -26 28 -3 33 0 39
24 11 42 -39 72 -66 40z m50 -25 c0 -27 -19 -36 -37 -18 -18 18 -9 37 18 37
12 0 19 -7 19 -19z"/>
<path d="M920 519 c-52 -11 -114 -29 -138 -39 -103 -46 -4 -93 273 -130 150
-21 632 -24 815 -6 246 24 390 61 390 101 0 30 -140 76 -270 89 l-55 5 45 -10
c121 -27 235 -66 238 -82 7 -34 -137 -70 -368 -93 -196 -19 -641 -14 -805 10
-122 18 -233 44 -252 59 -41 31 8 53 232 106 79 18 -9 10 -105 -10z"/>
<path d="M996 494 c-76 -15 -112 -38 -86 -54 51 -32 288 -53 595 -53 401 0
639 34 581 82 -17 14 -153 41 -204 41 -48 -1 -24 -15 41 -24 56 -9 114 -31
100 -39 -5 -3 -38 -10 -74 -16 -208 -31 -626 -32 -848 -1 -36 5 -68 7 -73 4
-4 -3 -17 1 -29 9 -26 18 -20 22 61 37 36 7 72 17 80 21 24 13 -66 9 -144 -7z"/>
</g>
</svg>
